<?xml version="1.0"?>
<svg xmlns="http://www.w3.org/2000/svg" viewBox="0 0 64 64" width="512" height="512"><g id="WWW"><path d="M32,2A30,30,0,1,0,62,32,30.034,30.034,0,0,0,32,2Zm0,58A28,28,0,1,1,60,32,28.032,28.032,0,0,1,32,60Z"/><path d="M32,6A26,26,0,1,0,58,32,26.03,26.03,0,0,0,32,6ZM19.044,41H31V55.932C25.705,55.28,21.061,49.487,19.044,41ZM33,55.932V41H44.956C42.939,49.487,38.3,55.28,33,55.932ZM9.044,39a23.989,23.989,0,0,1,0-14H54.956a23.989,23.989,0,0,1,0,14ZM44.956,23H33V8.068C38.3,8.72,42.939,14.513,44.956,23ZM31,8.068V23H19.044C21.061,14.513,25.705,8.72,31,8.068ZM54.242,23H47.006c-1.337-5.943-3.916-10.722-7.177-13.682A24.116,24.116,0,0,1,54.242,23ZM24.171,9.318c-3.261,2.96-5.84,7.739-7.177,13.682H9.758A24.116,24.116,0,0,1,24.171,9.318ZM9.758,41h7.236c1.337,5.943,3.916,10.722,7.177,13.682A24.116,24.116,0,0,1,9.758,41ZM39.829,54.682c3.261-2.96,5.84-7.739,7.177-13.682h7.236A24.116,24.116,0,0,1,39.829,54.682Z"/><path d="M37.124,27.008a1,1,0,0,0-1.116.868L35.417,32.6,32.9,27.553a1.042,1.042,0,0,0-1.79,0L28.583,32.6l-.591-4.723a1,1,0,1,0-1.984.248l1,8a1,1,0,0,0,1.887.323L32,30.236l3.1,6.211A1,1,0,0,0,36,37a1.08,1.08,0,0,0,.169-.014,1,1,0,0,0,.823-.862l1-8A1,1,0,0,0,37.124,27.008Z"/><path d="M52.124,27.008a1,1,0,0,0-1.116.868L50.417,32.6,47.9,27.553a1.042,1.042,0,0,0-1.79,0L43.583,32.6l-.591-4.723a1,1,0,0,0-1.984.248l1,8a1,1,0,0,0,1.887.323L47,30.236l3.1,6.211A1,1,0,0,0,51,37a1.08,1.08,0,0,0,.169-.014,1,1,0,0,0,.823-.862l1-8A1,1,0,0,0,52.124,27.008Z"/><path d="M22.124,27.008a1,1,0,0,0-1.116.868L20.417,32.6,17.9,27.553a1.042,1.042,0,0,0-1.79,0L13.583,32.6l-.591-4.723a1,1,0,0,0-1.984.248l1,8a1,1,0,0,0,1.887.323L17,30.236l3.105,6.211A1,1,0,0,0,21,37a1.08,1.08,0,0,0,.169-.014,1,1,0,0,0,.823-.862l1-8A1,1,0,0,0,22.124,27.008Z"/></g></svg>
